<svg width="192" height="32" viewBox="0 0 96 14" fill="none" xmlns="http://www.w3.org/2000/svg">
<path d="M0.52 13V0.743999H0.536L7.08 10.024L6.088 9.8L12.616 0.743999H12.648V13H10.328V5.976L10.472 7.176L6.488 12.84H6.456L2.36 7.176L2.76 6.072V13H0.52ZM18.7639 13.192C17.9105 13.192 17.1852 13.032 16.5879 12.712C16.0012 12.392 15.5532 11.9493 15.2439 11.384C14.9345 10.8187 14.7799 10.168 14.7799 9.432C14.7799 8.728 14.9612 8.09333 15.3239 7.528C15.6865 6.96267 16.1719 6.51467 16.7799 6.184C17.3879 5.84267 18.0652 5.672 18.8119 5.672C19.8145 5.672 20.6359 5.96533 21.2759 6.552C21.9265 7.128 22.3479 7.96533 22.5399 9.064L17.0999 10.792L16.6039 9.576L20.5399 8.248L20.0759 8.456C19.9905 8.17867 19.8359 7.93867 19.6119 7.736C19.3985 7.52267 19.0732 7.416 18.6359 7.416C18.3052 7.416 18.0119 7.496 17.7559 7.656C17.5105 7.80533 17.3185 8.024 17.1799 8.312C17.0519 8.58933 16.9879 8.92 16.9879 9.304C16.9879 9.74133 17.0679 10.1093 17.2279 10.408C17.3879 10.696 17.6065 10.9147 17.8839 11.064C18.1612 11.2133 18.4705 11.288 18.8119 11.288C19.0572 11.288 19.2919 11.2453 19.5159 11.16C19.7505 11.0747 19.9799 10.9627 20.2039 10.824L21.1959 12.488C20.8225 12.7013 20.4172 12.872 19.9799 13C19.5532 13.128 19.1479 13.192 18.7639 13.192ZM26.1836 6.008L26.3916 7.928L26.3436 7.64C26.5463 7.224 26.8236 6.872 27.1756 6.584C27.5276 6.28533 27.8743 6.056 28.2156 5.896C28.5676 5.736 28.8343 5.656 29.0156 5.656L28.9036 7.896C28.381 7.832 27.933 7.91733 27.5596 8.152C27.1863 8.38667 26.8983 8.696 26.6956 9.08C26.493 9.464 26.3916 9.85867 26.3916 10.264V13H24.1676V6.008H26.1836ZM29.8736 9.416C29.8736 8.70133 30.039 8.06133 30.3696 7.496C30.711 6.93067 31.1856 6.488 31.7936 6.168C32.4016 5.83733 33.1003 5.672 33.8896 5.672C34.6896 5.672 35.383 5.83733 35.9696 6.168C36.5563 6.488 37.0043 6.93067 37.3136 7.496C37.6336 8.06133 37.7936 8.70133 37.7936 9.416C37.7936 10.1307 37.6336 10.776 37.3136 11.352C37.0043 11.9173 36.5563 12.3653 35.9696 12.696C35.383 13.0267 34.679 13.192 33.8576 13.192C33.0896 13.192 32.4016 13.0427 31.7936 12.744C31.1963 12.4453 30.727 12.0133 30.3856 11.448C30.0443 10.8827 29.8736 10.2053 29.8736 9.416ZM32.1296 9.432C32.1296 9.79467 32.2043 10.1253 32.3536 10.424C32.503 10.712 32.7056 10.9413 32.9616 11.112C33.2176 11.2827 33.5056 11.368 33.8256 11.368C34.1776 11.368 34.4816 11.2827 34.7376 11.112C34.9936 10.9413 35.191 10.712 35.3296 10.424C35.4683 10.1253 35.5376 9.79467 35.5376 9.432C35.5376 9.05867 35.4683 8.728 35.3296 8.44C35.191 8.152 34.9936 7.92267 34.7376 7.752C34.4816 7.58133 34.1776 7.496 33.8256 7.496C33.5056 7.496 33.2176 7.58133 32.9616 7.752C32.7056 7.92267 32.503 8.152 32.3536 8.44C32.2043 8.728 32.1296 9.05867 32.1296 9.432ZM51.4174 4.072C50.9694 3.82667 50.5107 3.624 50.0414 3.464C49.5827 3.304 49.1507 3.224 48.7454 3.224C48.244 3.224 47.8494 3.32533 47.5614 3.528C47.2734 3.73067 47.1294 4.03467 47.1294 4.44C47.1294 4.71733 47.236 4.968 47.4494 5.192C47.6734 5.40533 47.956 5.59733 48.2974 5.768C48.6494 5.93867 49.012 6.09333 49.3854 6.232C49.7267 6.36 50.0627 6.51467 50.3934 6.696C50.7347 6.86667 51.0387 7.08533 51.3054 7.352C51.572 7.608 51.7854 7.93333 51.9454 8.328C52.1054 8.712 52.1854 9.18667 52.1854 9.752C52.1854 10.3493 52.0307 10.904 51.7214 11.416C51.412 11.928 50.9587 12.344 50.3614 12.664C49.764 12.9733 49.028 13.128 48.1534 13.128C47.7054 13.128 47.2467 13.0853 46.7774 13C46.3187 12.904 45.8654 12.7653 45.4174 12.584C44.9694 12.392 44.5374 12.152 44.1214 11.864L45.1454 10.056C45.4227 10.2587 45.7214 10.44 46.0414 10.6C46.372 10.7493 46.7027 10.8667 47.0334 10.952C47.364 11.0373 47.668 11.08 47.9454 11.08C48.2227 11.08 48.5 11.0427 48.7774 10.968C49.0654 10.8827 49.3 10.744 49.4814 10.552C49.6734 10.36 49.7694 10.0933 49.7694 9.752C49.7694 9.51733 49.6894 9.304 49.5294 9.112C49.38 8.92 49.172 8.744 48.9054 8.584C48.6494 8.424 48.3667 8.28533 48.0574 8.168C47.6947 8.02933 47.3214 7.86933 46.9374 7.688C46.5534 7.50667 46.1907 7.288 45.8494 7.032C45.5187 6.76533 45.2467 6.44 45.0334 6.056C44.8307 5.66133 44.7294 5.18133 44.7294 4.616C44.7294 3.93333 44.8787 3.34133 45.1774 2.84C45.4867 2.33867 45.9187 1.944 46.4734 1.656C47.028 1.35733 47.668 1.192 48.3934 1.16C49.3427 1.16 50.1107 1.272 50.6974 1.496C51.2947 1.72 51.828 1.98667 52.2974 2.296L51.4174 4.072ZM57.0335 13.192C56.3828 13.192 55.7908 13.064 55.2575 12.808C54.7348 12.5413 54.3188 12.136 54.0095 11.592C53.7002 11.048 53.5455 10.3547 53.5455 9.512C53.5455 8.72267 53.7055 8.04 54.0255 7.464C54.3455 6.888 54.7668 6.44533 55.2895 6.136C55.8122 5.816 56.3668 5.656 56.9535 5.656C57.6468 5.656 58.1695 5.77333 58.5215 6.008C58.8842 6.232 59.1828 6.48267 59.4175 6.76L59.3215 7.032L59.5295 6.008H61.6095V13H59.3695V11.48L59.5455 11.96C59.5242 11.96 59.4602 12.024 59.3535 12.152C59.2468 12.2693 59.0868 12.4133 58.8735 12.584C58.6708 12.744 58.4148 12.8827 58.1055 13C57.8068 13.128 57.4495 13.192 57.0335 13.192ZM57.6735 11.368C57.9402 11.368 58.1802 11.3307 58.3935 11.256C58.6068 11.1707 58.7935 11.0533 58.9535 10.904C59.1135 10.744 59.2522 10.5467 59.3695 10.312V8.6C59.2842 8.36533 59.1562 8.168 58.9855 8.008C58.8148 7.83733 58.6122 7.70933 58.3775 7.624C58.1428 7.528 57.8815 7.48 57.5935 7.48C57.2735 7.48 56.9748 7.56533 56.6975 7.736C56.4308 7.896 56.2175 8.12 56.0575 8.408C55.8975 8.696 55.8175 9.02667 55.8175 9.4C55.8175 9.77333 55.9028 10.1093 56.0735 10.408C56.2442 10.7067 56.4682 10.9413 56.7455 11.112C57.0335 11.2827 57.3428 11.368 57.6735 11.368ZM65.9496 6.008L66.1256 7.256L66.0936 7.144C66.339 6.70667 66.6856 6.35467 67.1336 6.088C67.5816 5.81067 68.131 5.672 68.7816 5.672C69.443 5.672 69.9923 5.86933 70.4296 6.264C70.8776 6.648 71.107 7.14933 71.1176 7.768V13H68.8776V8.6C68.867 8.29067 68.7816 8.04533 68.6216 7.864C68.4723 7.672 68.2163 7.576 67.8536 7.576C67.5123 7.576 67.2136 7.688 66.9576 7.912C66.7016 8.136 66.5043 8.44 66.3656 8.824C66.227 9.208 66.1576 9.65067 66.1576 10.152V13H63.9176V6.008H65.9496ZM75.6896 13.144C75.1136 13.144 74.575 13.0427 74.0736 12.84C73.583 12.6373 73.167 12.3547 72.8256 11.992L73.7536 10.76C74.095 11.0693 74.4096 11.2933 74.6976 11.432C74.9963 11.56 75.263 11.624 75.4976 11.624C75.679 11.624 75.839 11.608 75.9776 11.576C76.127 11.5333 76.2443 11.4747 76.3296 11.4C76.415 11.3147 76.4576 11.208 76.4576 11.08C76.4576 10.8987 76.383 10.7547 76.2336 10.648C76.095 10.5413 75.9136 10.456 75.6896 10.392C75.4656 10.3173 75.2256 10.2427 74.9696 10.168C74.3296 9.96533 73.8656 9.672 73.5776 9.288C73.3003 8.89333 73.1616 8.46667 73.1616 8.008C73.1616 7.656 73.2523 7.304 73.4336 6.952C73.6256 6.58933 73.9243 6.29067 74.3296 6.056C74.7456 5.81067 75.279 5.688 75.9296 5.688C76.5163 5.688 77.0123 5.74667 77.4176 5.864C77.823 5.98133 78.207 6.17333 78.5696 6.44L77.7216 7.752C77.519 7.592 77.2896 7.45867 77.0336 7.352C76.7883 7.23467 76.559 7.17067 76.3456 7.16C76.1536 7.14933 75.9883 7.17067 75.8496 7.224C75.7216 7.27733 75.6203 7.34667 75.5456 7.432C75.471 7.51733 75.4336 7.608 75.4336 7.704C75.423 7.90667 75.4976 8.06667 75.6576 8.184C75.8283 8.30133 76.0416 8.392 76.2976 8.456C76.5536 8.52 76.8043 8.59467 77.0496 8.68C77.391 8.78667 77.6843 8.93067 77.9296 9.112C78.175 9.29333 78.3616 9.512 78.4896 9.768C78.6283 10.0133 78.6976 10.312 78.6976 10.664C78.6976 11.0907 78.5856 11.496 78.3616 11.88C78.1483 12.2533 77.8176 12.5573 77.3696 12.792C76.9323 13.0267 76.3723 13.144 75.6896 13.144ZM83.5179 13.192C82.8672 13.192 82.2752 13.064 81.7419 12.808C81.2192 12.5413 80.8032 12.136 80.4939 11.592C80.1845 11.048 80.0299 10.3547 80.0299 9.512C80.0299 8.72267 80.1899 8.04 80.5099 7.464C80.8299 6.888 81.2512 6.44533 81.7739 6.136C82.2965 5.816 82.8512 5.656 83.4379 5.656C84.1312 5.656 84.6539 5.77333 85.0059 6.008C85.3685 6.232 85.6672 6.48267 85.9019 6.76L85.8059 7.032L86.0139 6.008H88.0939V13H85.8539V11.48L86.0299 11.96C86.0085 11.96 85.9445 12.024 85.8379 12.152C85.7312 12.2693 85.5712 12.4133 85.3579 12.584C85.1552 12.744 84.8992 12.8827 84.5899 13C84.2912 13.128 83.9339 13.192 83.5179 13.192ZM84.1579 11.368C84.4245 11.368 84.6645 11.3307 84.8779 11.256C85.0912 11.1707 85.2779 11.0533 85.4379 10.904C85.5979 10.744 85.7365 10.5467 85.8539 10.312V8.6C85.7685 8.36533 85.6405 8.168 85.4699 8.008C85.2992 7.83733 85.0965 7.70933 84.8619 7.624C84.6272 7.528 84.3659 7.48 84.0779 7.48C83.7579 7.48 83.4592 7.56533 83.1819 7.736C82.9152 7.896 82.7019 8.12 82.5419 8.408C82.3819 8.696 82.3019 9.02667 82.3019 9.4C82.3019 9.77333 82.3872 10.1093 82.5579 10.408C82.7285 10.7067 82.9525 10.9413 83.2299 11.112C83.5179 11.2827 83.8272 11.368 84.1579 11.368ZM92.418 6.008L92.626 7.928L92.578 7.64C92.7807 7.224 93.058 6.872 93.41 6.584C93.762 6.28533 94.1087 6.056 94.45 5.896C94.802 5.736 95.0687 5.656 95.25 5.656L95.138 7.896C94.6153 7.832 94.1673 7.91733 93.794 8.152C93.4207 8.38667 93.1327 8.696 92.93 9.08C92.7273 9.464 92.626 9.85867 92.626 10.264V13H90.402V6.008H92.418Z" fill="white"/>
</svg>
